# xmcd
#
# Track frame offsets: 
#        150
#        22190
#        43190
#        68190
#        88505
#        111110
#        131920
#        155163
#        173290
#        196023
#
# Disc length: 2964 seconds
#
# Revision: 2
# Processed by: cddbd v1.5.2PL0 Copyright (c) Steve Scherf et al.
# Submitted via: ExactAudioCopyFreeDBPlugin 1.0
#
DISCID=840b920a
DTITLE=Various Artist - Tinh Ca Ngo Thuy Mien
DYEAR=1900
DGENRE=Vietnamese
TTITLE0=Ai Van - Em Ve Mua Thu
TTITLE1=Duy Quang - Ban Tinh CA Cho Em
TTITLE2=Khanh Ha - Tu Giong Hat Em
TTITLE3=Tuan Ngoc - Mat Biec
TTITLE4=Thai Thao - Giot Nuoc Mat Nga
TTITLE5=Don Ho - Tinh Cuoi Chan May
TTITLE6=Nhu Mai - Giang Ngoc
TTITLE7=Phi Khanh - Mua Thu Cho Em
TTITLE8=Thai Hien - Em Con Nho Mua Xuan
TTITLE9=Dalena - Niem Khuc Cuoi
EXTD=
EXTT0=
EXTT1=
EXTT2=
EXTT3=
EXTT4=
EXTT5=
EXTT6=
EXTT7=
EXTT8=
EXTT9=
PLAYORDER=
